<svg width="30" height="27" viewBox="0 0 30 27" fill="none" xmlns="http://www.w3.org/2000/svg">
<path d="M21.5131 8H0.460947C0.0399037 8 -0.147226 8.50902 0.133469 8.78667L7.61868 16.098L10.1917 26.6486C10.2853 27.0651 10.8467 27.1113 11.0338 26.7874L21.9341 8.69412C22.1213 8.3702 21.8874 8 21.5131 8ZM2.75329 9.38823H18.4254L8.69468 14.7098C8.50755 14.8023 8.27363 14.7561 8.13329 14.6172L2.75329 9.38823V9.38823ZM11.0338 24.1035L9.1625 16.422C9.11572 16.2369 9.20928 16.0055 9.39641 15.9129L19.174 10.5451L11.0338 24.1035V24.1035Z" fill="#262626"/>
<circle cx="21" cy="9" r="9" fill="#DC565B"/>
</svg>
